<svg xmlns="http://www.w3.org/2000/svg" style="display: none;">
    <!-- Первый SVG -->
    <symbol id="icon-chevron-down" viewBox="0 0 20 20" fill="currentColor" aria-hidden="true">
        <path
                fill-rule="evenodd"
                d="M5.23 7.21a.75.75 0 011.06.02L10 10.94l3.71-3.71a.75.75 0 111.06 1.06l-4.25 4.25a.75.75 0 01-1.06 0L5.23 8.27a.75.75 0 01.02-1.06z"
                clip-rule="evenodd"
        />
    </symbol>

    <!-- Второй SVG -->
    <symbol id="icon-flag-red-blue-white" viewBox="0 0 48 48">
        <path
                fill="#f44336"
                d="M48 36c0 6.6-5.4 12-12 12H12C5.4 48 0 42.6 0 36v-2h48v2z"
        />
        <path fill="#3f51b5" d="M0 14h48v8H0z" />
        <path fill="#fff" d="M0 22h48v8H0z" />
        <path
                fill="#3f51b5"
                d="M48 12V2c0-1.1-.9-2-2-2H2C.9 0 0 .9 0 2v10h48z"
        />
    </symbol>

    <!-- Третий SVG -->
    <symbol id="icon-flag-blue-red" viewBox="0 0 48 48">
        <path fill="#fff" d="M0 14h48v20H0z" />
        <path fill="#0052b4" d="M0 14h48v10H0z" />
        <path fill="#d80027" d="M0 24h48v10H0z" />
    </symbol>
</svg>